<!-- Generated by IcoMoon.io -->
<svg version="1.1" xmlns="http://www.w3.org/2000/svg" width="26" height="32" viewBox="0 0 26 32">
<path fill="#f70" d="M6.869 22.667c-0.544-0.544-0.256-0.395-1.568-0.736-0.576-0.171-1.12-0.448-1.589-0.832l-2.837 6.955c-0.213 0.512 0.043 1.099 0.555 1.301 0.128 0.053 0.267 0.075 0.405 0.075l3.296-0.128 2.261 2.389c0.384 0.405 1.013 0.416 1.408 0.043 0.107-0.096 0.181-0.213 0.235-0.352l3.253-7.979c-1.771 1.024-4 0.715-5.429-0.736h0.011zM24.725 28.043l-2.837-6.955c-0.469 0.384-1.013 0.661-1.589 0.832-1.323 0.352-1.024 0.203-1.568 0.736-1.429 1.451-3.669 1.76-5.429 0.736l3.253 7.979c0.203 0.512 0.789 0.757 1.301 0.555 0.128-0.053 0.256-0.139 0.352-0.235l2.261-2.389 3.296 0.128c0.555 0.021 1.013-0.416 1.035-0.971 0-0.139-0.021-0.277-0.075-0.405v-0.011zM17.237 21.248c0.96-0.971 1.067-0.885 2.421-1.259 0.875-0.245 1.557-0.939 1.781-1.813 0.107-1.141 0.693-2.187 1.621-2.859 0.64-0.651 0.885-1.589 0.651-2.475-0.469-1.056-0.469-2.251 0-3.307 0.235-0.885-0.011-1.824-0.651-2.475-0.928-0.683-1.515-1.717-1.621-2.859-0.224-0.875-0.907-1.568-1.781-1.813-1.131-0.117-2.155-0.715-2.805-1.643-0.629-0.64-1.557-0.896-2.432-0.661-1.024 0.48-2.219 0.48-3.243 0-0.875-0.235-1.803 0.011-2.432 0.661-0.651 0.939-1.675 1.536-2.805 1.653-0.875 0.245-1.557 0.939-1.781 1.813-0.107 1.141-0.693 2.187-1.621 2.859-0.64 0.651-0.885 1.589-0.651 2.475 0.469 1.056 0.469 2.251 0 3.307-0.235 0.885 0.011 1.824 0.651 2.475 0.928 0.683 1.515 1.717 1.621 2.859 0.224 0.875 0.907 1.568 1.781 1.813 1.397 0.384 1.504 0.32 2.421 1.259 0.821 0.832 2.112 0.981 3.104 0.363 0.811-0.512 1.845-0.512 2.656 0 0.992 0.629 2.293 0.48 3.115-0.363v-0.011zM6.901 10.997c0.053-3.253 2.741-5.845 6.005-5.792s5.845 2.741 5.792 6.005c-0.053 3.211-2.677 5.792-5.899 5.792-3.285-0.032-5.92-2.72-5.899-6.005z"></path>
</svg>
