<!-- Generated by IcoMoon.io -->
<svg version="1.1" xmlns="http://www.w3.org/2000/svg" width="32" height="32" viewBox="0 0 32 32">
<path fill="#4ea2ec" d="M10.443 19.339c-2.805 0-5.269 1.835-6.080 4.523-0.139 0.384-0.501 0.629-0.917 0.619-0.693 0-2.837-1.728-3.456-2.144 0 5.152 2.368 9.675 8 9.675 4.736 0 8-2.741 8-7.509 0-0.192-0.032-0.384-0.064-0.565l-5.504-4.587 0.021-0.011zM28.619 0c-0.939 0.021-1.835 0.384-2.517 1.024-12.768 11.413-14.101 11.68-14.101 15.040 0 0.832 0.192 1.664 0.544 2.421l3.989 3.317c0.459 0.117 0.928 0.181 1.397 0.192 3.883 0 6.133-2.837 13.195-16.032 0.512-0.875 0.811-1.867 0.864-2.88-0.085-1.781-1.6-3.168-3.381-3.093l0.011 0.011z"></path>
</svg>
