<!-- Generated by IcoMoon.io -->
<svg version="1.1" xmlns="http://www.w3.org/2000/svg" width="32" height="32" viewBox="0 0 32 32">
<path fill="#ad4eec" d="M31.115 8.875l-2.88 2.88c-0.288 0.299-0.757 0.299-1.056 0.011 0 0 0 0-0.011-0.011l-6.933-6.933c-0.299-0.288-0.299-0.757-0.011-1.056 0 0 0 0 0.011-0.011l2.88-2.88c1.173-1.173 3.072-1.173 4.245 0l3.755 3.755c1.173 1.163 1.173 3.061 0 4.235v0.011zM17.76 6.229l-16.416 16.416-1.323 7.595c-0.139 0.821 0.405 1.6 1.227 1.739 0.171 0.032 0.341 0.032 0.512 0l7.595-1.333 16.416-16.416c0.299-0.288 0.299-0.757 0.011-1.056 0 0 0 0-0.011-0.011l-6.933-6.933c-0.299-0.288-0.768-0.288-1.067 0h-0.011zM7.755 21.237c-0.341-0.341-0.341-0.896 0-1.237l9.632-9.621c0.341-0.341 0.896-0.341 1.237 0s0.341 0.896 0 1.237l-9.632 9.621c-0.341 0.341-0.896 0.341-1.237 0zM5.493 26.496h2.997v2.272l-4.032 0.704-1.941-1.941 0.704-4.032h2.272v2.997z"></path>
</svg>
