<svg aria-hidden="true" style="position: absolute; width: 0; height: 0; overflow: hidden;" version="1.1" xmlns="http://www.w3.org/2000/svg" xmlns:xlink="http://www.w3.org/1999/xlink">
<defs>
<symbol id="icon-award" viewBox="0 0 26 32">
<path fill="#f70" style="fill: var(--color1, #f70)" d="M6.869 22.667c-0.544-0.544-0.256-0.395-1.568-0.736-0.576-0.171-1.12-0.448-1.589-0.832l-2.837 6.955c-0.213 0.512 0.043 1.099 0.555 1.301 0.128 0.053 0.267 0.075 0.405 0.075l3.296-0.128 2.261 2.389c0.384 0.405 1.013 0.416 1.408 0.043 0.107-0.096 0.181-0.213 0.235-0.352l3.253-7.979c-1.771 1.024-4 0.715-5.429-0.736h0.011zM24.725 28.043l-2.837-6.955c-0.469 0.384-1.013 0.661-1.589 0.832-1.323 0.352-1.024 0.203-1.568 0.736-1.429 1.451-3.669 1.76-5.429 0.736l3.253 7.979c0.203 0.512 0.789 0.757 1.301 0.555 0.128-0.053 0.256-0.139 0.352-0.235l2.261-2.389 3.296 0.128c0.555 0.021 1.013-0.416 1.035-0.971 0-0.139-0.021-0.277-0.075-0.405v-0.011zM17.237 21.248c0.96-0.971 1.067-0.885 2.421-1.259 0.875-0.245 1.557-0.939 1.781-1.813 0.107-1.141 0.693-2.187 1.621-2.859 0.64-0.651 0.885-1.589 0.651-2.475-0.469-1.056-0.469-2.251 0-3.307 0.235-0.885-0.011-1.824-0.651-2.475-0.928-0.683-1.515-1.717-1.621-2.859-0.224-0.875-0.907-1.568-1.781-1.813-1.131-0.117-2.155-0.715-2.805-1.643-0.629-0.64-1.557-0.896-2.432-0.661-1.024 0.48-2.219 0.48-3.243 0-0.875-0.235-1.803 0.011-2.432 0.661-0.651 0.939-1.675 1.536-2.805 1.653-0.875 0.245-1.557 0.939-1.781 1.813-0.107 1.141-0.693 2.187-1.621 2.859-0.64 0.651-0.885 1.589-0.651 2.475 0.469 1.056 0.469 2.251 0 3.307-0.235 0.885 0.011 1.824 0.651 2.475 0.928 0.683 1.515 1.717 1.621 2.859 0.224 0.875 0.907 1.568 1.781 1.813 1.397 0.384 1.504 0.32 2.421 1.259 0.821 0.832 2.112 0.981 3.104 0.363 0.811-0.512 1.845-0.512 2.656 0 0.992 0.629 2.293 0.48 3.115-0.363v-0.011zM6.901 10.997c0.053-3.253 2.741-5.845 6.005-5.792s5.845 2.741 5.792 6.005c-0.053 3.211-2.677 5.792-5.899 5.792-3.285-0.032-5.92-2.72-5.899-6.005z"></path>
</symbol>
<symbol id="icon-brush" viewBox="0 0 32 32">
<path fill="#4ea2ec" style="fill: var(--color2, #4ea2ec)" d="M10.443 19.339c-2.805 0-5.269 1.835-6.080 4.523-0.139 0.384-0.501 0.629-0.917 0.619-0.693 0-2.837-1.728-3.456-2.144 0 5.152 2.368 9.675 8 9.675 4.736 0 8-2.741 8-7.509 0-0.192-0.032-0.384-0.064-0.565l-5.504-4.587 0.021-0.011zM28.619 0c-0.939 0.021-1.835 0.384-2.517 1.024-12.768 11.413-14.101 11.68-14.101 15.040 0 0.832 0.192 1.664 0.544 2.421l3.989 3.317c0.459 0.117 0.928 0.181 1.397 0.192 3.883 0 6.133-2.837 13.195-16.032 0.512-0.875 0.811-1.867 0.864-2.88-0.085-1.781-1.6-3.168-3.381-3.093l0.011 0.011z"></path>
</symbol>
<symbol id="icon-pencil" viewBox="0 0 32 32">
<path fill="#ad4eec" style="fill: var(--color3, #ad4eec)" d="M31.115 8.875l-2.88 2.88c-0.288 0.299-0.757 0.299-1.056 0.011 0 0 0 0-0.011-0.011l-6.933-6.933c-0.299-0.288-0.299-0.757-0.011-1.056 0 0 0 0 0.011-0.011l2.88-2.88c1.173-1.173 3.072-1.173 4.245 0l3.755 3.755c1.173 1.163 1.173 3.061 0 4.235v0.011zM17.76 6.229l-16.416 16.416-1.323 7.595c-0.139 0.821 0.405 1.6 1.227 1.739 0.171 0.032 0.341 0.032 0.512 0l7.595-1.333 16.416-16.416c0.299-0.288 0.299-0.757 0.011-1.056 0 0 0 0-0.011-0.011l-6.933-6.933c-0.299-0.288-0.768-0.288-1.067 0h-0.011zM7.755 21.237c-0.341-0.341-0.341-0.896 0-1.237l9.632-9.621c0.341-0.341 0.896-0.341 1.237 0s0.341 0.896 0 1.237l-9.632 9.621c-0.341 0.341-0.896 0.341-1.237 0zM5.493 26.496h2.997v2.272l-4.032 0.704-1.941-1.941 0.704-4.032h2.272v2.997z"></path>
</symbol>
<symbol id="icon-search" viewBox="0 0 32 32">
<path stroke-linejoin="miter" stroke-linecap="butt" stroke-miterlimit="4" stroke-width="4.9231" d="M22.154 12.308c0 5.438-4.408 9.846-9.846 9.846s-9.846-4.408-9.846-9.846c0-5.438 4.408-9.846 9.846-9.846s9.846 4.408 9.846 9.846z"></path>
<path stroke-linejoin="miter" stroke-linecap="butt" stroke-miterlimit="4" stroke-width="4.9231" d="M18.971 20.413l9.424 9.424"></path>
</symbol>
<symbol id="icon-arrow" viewBox="0 0 32 32">
<path stroke-linejoin="miter" stroke-linecap="round" stroke-miterlimit="4" stroke-width="6.4" d="M4 8l12 12 12-12"></path>
</symbol>
</defs>
</svg>
